<?xml version="1.0" encoding="utf-8"?>
<!-- Generator: Adobe Illustrator 23.0.1, SVG Export Plug-In . SVG Version: 6.00 Build 0)  -->
<svg version="1.1" id="favicon" xmlns="http://www.w3.org/2000/svg" xmlns:xlink="http://www.w3.org/1999/xlink" x="0px" y="0px"
	 viewBox="0 0 180 180" style="enable-background:new 0 0 180 180;" xml:space="preserve">
<style type="text/css">
	.st0{clip-path:url(#SVGID_2_);fill:none;stroke:#2B8E7B;stroke-width:14;}
	.st1{clip-path:url(#SVGID_2_);fill:#2B8E7B;}
	.st2{clip-path:url(#SVGID_4_);fill:none;stroke:#2B8E7B;stroke-width:14;}
	.st3{clip-path:url(#SVGID_4_);fill:#2B8E7B;}
	.st4{fill:none;stroke:#2B8E7B;stroke-width:32;}
	.st5{fill:#2B8E7B;}
</style>
<g>
	<defs>
		<rect id="SVGID_3_" x="3" y="3.2" width="174" height="174"/>
	</defs>
	<clipPath id="SVGID_2_">
		<use xlink:href="#SVGID_3_"  style="overflow:visible;"/>
	</clipPath>
	<rect x="11.2" y="11.5" class="st0" width="157.7" height="157.5"/>
	<path class="st1" d="M72.8,103.4v34.4h34.4v-34.4H72.8z M82.8,116c-1.5,0-2.8-1.3-2.8-2.8c0-1.5,1.2-2.8,2.8-2.8s2.8,1.3,2.8,2.8
		C85.5,114.8,84.3,116,82.8,116z M90,123.4c-1.5,0-2.8-1.3-2.8-2.8c0-1.5,1.2-2.8,2.8-2.8s2.8,1.3,2.8,2.8
		C92.8,122.1,91.5,123.4,90,123.4z M97.3,130.7c-1.5,0-2.8-1.3-2.8-2.8c0-1.5,1.2-2.8,2.8-2.8s2.8,1.3,2.8,2.8
		C100,129.4,98.8,130.7,97.3,130.7z"/>
</g>
</svg>
