<svg width="106" height="95" viewBox="0 0 106 95" fill="none" xmlns="http://www.w3.org/2000/svg">
<path d="M28.9608 3.70588L44.2941 12.7255" stroke="black"/>
<path d="M58.7255 1L47 12.7255" stroke="black"/>
<ellipse cx="46.5013" cy="39.4671" rx="10.4993" ry="2.12107" fill="#979797"/>
<path d="M36.2141 39.2551V19.9533" stroke="black"/>
<path d="M56.7885 39.4672V20.3775" stroke="black"/>
<path d="M36.4262 19.1048C37.7753 18.4596 41.5192 17.1338 45.7015 16.9931C49.8838 16.8523 54.9768 18.3422 57.0005 19.1048" stroke="black"/>
<path d="M43.6378 16.9837V14.4385" stroke="black"/>
<path d="M49.5768 16.9837V14.4385" stroke="black"/>
<path d="M43.6378 14.2264C44.0273 14.0973 45.108 13.8322 46.3152 13.804C47.5225 13.7759 48.9927 14.0739 49.5768 14.2264" stroke="black"/>
<path d="M0.646447 79.117C0.451184 79.3123 0.451184 79.6289 0.646447 79.8241L3.82843 83.0061C4.02369 83.2014 4.34027 83.2014 4.53553 83.0061C4.7308 82.8109 4.7308 82.4943 4.53553 82.299L1.70711 79.4706L4.53553 76.6422C4.7308 76.4469 4.7308 76.1303 4.53553 75.935C4.34027 75.7398 4.02369 75.7398 3.82843 75.935L0.646447 79.117ZM1 79.9706H10.0196V78.9706H1V79.9706Z" fill="black" fill-opacity="0.6"/>
<path d="M102.373 79.8241C102.568 79.6289 102.568 79.3123 102.373 79.117L99.1912 75.935C98.9959 75.7398 98.6793 75.7398 98.4841 75.935C98.2888 76.1303 98.2888 76.4469 98.4841 76.6422L101.313 79.4706L98.4841 82.299C98.2888 82.4943 98.2888 82.8109 98.4841 83.0061C98.6793 83.2014 98.9959 83.2014 99.1912 83.0061L102.373 79.8241ZM102.02 78.9706L93 78.9706L93 79.9706L102.02 79.9706L102.02 78.9706Z" fill="black" fill-opacity="0.6"/>
<path d="M27.9275 64.5568C27.6611 64.6293 27.5039 64.9041 27.5764 65.1705L28.7581 69.5126C28.8307 69.779 29.1054 69.9362 29.3719 69.8637C29.6383 69.7912 29.7956 69.5164 29.723 69.25L28.6726 65.3904L32.5322 64.3399C32.7986 64.2674 32.9558 63.9926 32.8833 63.7261C32.8108 63.4597 32.536 63.3025 32.2696 63.375L27.9275 64.5568ZM27.8105 65.4732L35.6394 69.9523L36.136 69.0843L28.3071 64.6052L27.8105 65.4732Z" fill="black" fill-opacity="0.6"/>
<path d="M78.3916 93.483C78.6583 93.4115 78.8166 93.1373 78.7452 92.8706L77.5805 88.5239C77.509 88.2572 77.2348 88.0989 76.9681 88.1704C76.7014 88.2418 76.5431 88.516 76.6146 88.7827L77.6498 92.6464L73.7861 93.6817C73.5194 93.7532 73.3611 94.0274 73.4326 94.2941C73.504 94.5608 73.7782 94.7191 74.045 94.6476L78.3916 93.483ZM78.5122 92.567L70.701 88.0572L70.201 88.9232L78.0122 93.433L78.5122 92.567Z" fill="black" fill-opacity="0.6"/>
<path d="M1 72.2549H68.6299L105.627 85.7843H32.8258L1 72.2549Z" fill="#D7D7D7" fill-opacity="0.4"/>
</svg>
