<svg width="105" height="92" viewBox="0 0 105 92" fill="none" xmlns="http://www.w3.org/2000/svg">
<path d="M0 78.4851H67.5571L104.515 92H31.7916L0 78.4851Z" fill="#D7D7D7" fill-opacity="0.4"/>
<path d="M31.5347 10.0099L46.8515 19.0198" stroke="black"/>
<path d="M61.2673 7.30695L49.5545 19.0198" stroke="black"/>
<ellipse cx="49.0563" cy="45.7327" rx="10.488" ry="2.11879" fill="#979797"/>
<path d="M38.7801 45.5208V26.2398" stroke="black"/>
<path d="M59.3324 45.7327V26.6636" stroke="black"/>
<path d="M38.992 25.3923C40.3397 24.7477 44.0795 23.4234 48.2574 23.2828C52.4352 23.1421 57.5227 24.6305 59.5443 25.3923" stroke="black"/>
<path d="M46.1959 23.2735V20.7309" stroke="black"/>
<path d="M52.1285 23.2735V20.7309" stroke="black"/>
<path d="M46.1959 20.5191C46.5849 20.3902 47.6645 20.1253 48.8704 20.0972C50.0764 20.0691 51.545 20.3667 52.1285 20.5191" stroke="black"/>
<path d="M49.007 0.646447C48.8118 0.451184 48.4952 0.451184 48.2999 0.646447L45.1179 3.82843C44.9227 4.02369 44.9227 4.34027 45.1179 4.53553C45.3132 4.7308 45.6298 4.7308 45.825 4.53553L48.6535 1.70711L51.4819 4.53553C51.6772 4.7308 51.9937 4.7308 52.189 4.53553C52.3843 4.34027 52.3843 4.02369 52.189 3.82843L49.007 0.646447ZM48.1535 1L48.1535 10.0099L49.1535 10.0099L49.1535 1L48.1535 1Z" fill="black" fill-opacity="0.6"/>
<path d="M48.2999 63.5219C48.4952 63.7171 48.8118 63.7171 49.007 63.5219L52.189 60.3399C52.3843 60.1446 52.3843 59.828 52.189 59.6328C51.9937 59.4375 51.6772 59.4375 51.4819 59.6328L48.6535 62.4612L45.825 59.6328C45.6298 59.4375 45.3132 59.4375 45.1179 59.6328C44.9227 59.828 44.9227 60.1446 45.1179 60.3399L48.2999 63.5219ZM49.1535 63.1683L49.1535 54.1584L48.1535 54.1584L48.1535 63.1683L49.1535 63.1683Z" fill="black" fill-opacity="0.6"/>
</svg>
