<svg width="59" height="53" viewBox="0 0 59 53" fill="none" xmlns="http://www.w3.org/2000/svg">
<path d="M10.2882 41H49.7216L59 53H2L10.2882 41Z" fill="#D7D7D7" fill-opacity="0.4"/>
<path d="M17.632 2.87389L29 9.43244" stroke="black" stroke-width="0.5"/>
<path d="M39.208 1L30.624 9.66667" stroke="black" stroke-width="0.5"/>
<ellipse cx="30.3467" cy="29.1525" rx="7.6107" ry="1.55232" fill="#979797"/>
<path d="M22.8898 28.9972V14.8711" stroke="black" stroke-width="0.5"/>
<path d="M37.8037 29.1525V15.1816" stroke="black" stroke-width="0.5"/>
<path d="M23.0435 14.2502C24.0215 13.7779 26.7353 12.8077 29.767 12.7047C32.7987 12.6016 36.4905 13.6921 37.9574 14.2502" stroke="black" stroke-width="0.5"/>
<path d="M28.2711 12.6978V10.8351" stroke="black" stroke-width="0.5"/>
<path d="M32.5761 12.6978V10.8351" stroke="black" stroke-width="0.5"/>
<path d="M28.2711 10.6798C28.5534 10.5854 29.3368 10.3914 30.2119 10.3707C31.087 10.3501 32.1527 10.5682 32.5761 10.6798" stroke="black" stroke-width="0.5"/>
</svg>
