<svg width="264" height="276" viewBox="0 0 264 276" fill="none" xmlns="http://www.w3.org/2000/svg">
<path fill-rule="evenodd" clip-rule="evenodd" d="M126.895 5.4889L101.28 0H59.3863L127.105 14.5111L126.895 15.4889L54.6137 0H12.7196L127.105 24.5111L126.895 25.4889L7.94703 0H0V276H129V0H106.053L127.105 4.5111L126.895 5.4889ZM0.890244 266.488L40.8902 275.488L41.1098 274.512L1.10976 265.512L0.890244 266.488ZM78.8935 275.489L0.893525 258.489L1.10647 257.511L79.1065 274.511L78.8935 275.489ZM0.895235 248.489L126.895 275.489L127.105 274.511L1.10476 247.511L0.895235 248.489ZM126.895 265.489L0.895235 238.489L1.10476 237.511L127.105 264.511L126.895 265.489ZM0.895235 228.489L126.895 255.489L127.105 254.511L1.10476 227.511L0.895235 228.489ZM126.895 245.489L0.895235 218.489L1.10476 217.511L127.105 244.511L126.895 245.489ZM0.895235 208.489L126.895 235.489L127.105 234.511L1.10476 207.511L0.895235 208.489ZM126.895 225.489L0.895235 198.489L1.10476 197.511L127.105 224.511L126.895 225.489ZM0.895235 188.489L126.895 215.489L127.105 214.511L1.10476 187.511L0.895235 188.489ZM126.895 205.489L0.895235 178.489L1.10476 177.511L127.105 204.511L126.895 205.489ZM0.895235 168.489L126.895 195.489L127.105 194.511L1.10476 167.511L0.895235 168.489ZM126.895 185.489L0.895235 158.489L1.10476 157.511L127.105 184.511L126.895 185.489ZM0.895235 148.489L126.895 175.489L127.105 174.511L1.10476 147.511L0.895235 148.489ZM126.895 165.489L0.895235 138.489L1.10476 137.511L127.105 164.511L126.895 165.489ZM0.895235 128.489L126.895 155.489L127.105 154.511L1.10476 127.511L0.895235 128.489ZM126.895 145.489L0.895235 118.489L1.10476 117.511L127.105 144.511L126.895 145.489ZM0.895235 108.489L126.895 135.489L127.105 134.511L1.10476 107.511L0.895235 108.489ZM126.895 125.489L0.895235 98.4889L1.10476 97.5111L127.105 124.511L126.895 125.489ZM0.895235 88.4889L126.895 115.489L127.105 114.511L1.10476 87.5111L0.895235 88.4889ZM126.895 105.489L0.895235 78.4889L1.10476 77.5111L127.105 104.511L126.895 105.489ZM0.895235 68.4889L126.895 95.4889L127.105 94.5111L1.10476 67.5111L0.895235 68.4889ZM126.895 85.4889L0.895235 58.4889L1.10476 57.5111L127.105 84.5111L126.895 85.4889ZM0.895235 48.4889L126.895 75.4889L127.105 74.5111L1.10476 47.5111L0.895235 48.4889ZM126.895 65.4889L0.895235 38.4889L1.10476 37.5111L127.105 64.5111L126.895 65.4889ZM0.895235 28.4889L126.895 55.4889L127.105 54.5111L1.10476 27.5111L0.895235 28.4889ZM126.895 45.4889L0.895235 18.4889L1.10476 17.5111L127.105 44.5111L126.895 45.4889ZM0.895235 8.4889L126.895 35.4889L127.105 34.5111L1.10476 7.5111L0.895235 8.4889Z" fill="#D7D7D7"/>
<rect x="9.78644" y="11.1131" width="253.714" height="253.714" stroke="black"/>
<path d="M9.5 133L120.724 213V264.5" stroke="black"/>
<path d="M25.206 16.5829L185 122.5" stroke="#938E98" stroke-width="0.8" stroke-linecap="round"/>
<path d="M254.05 15.9196L188.382 122.714" stroke="#938E98" stroke-width="0.8" stroke-linecap="round"/>
<path d="M142.923 154.863C142.728 155.058 142.728 155.374 142.923 155.57L146.105 158.752C146.3 158.947 146.617 158.947 146.812 158.752C147.007 158.556 147.007 158.24 146.812 158.045L143.983 155.216L146.812 152.388C147.007 152.192 147.007 151.876 146.812 151.681C146.617 151.485 146.3 151.485 146.105 151.681L142.923 154.863ZM143.276 155.716H156.543V154.716H143.276V155.716Z" fill="black" fill-opacity="0.6"/>
<path d="M229.861 155.57C230.056 155.374 230.056 155.058 229.861 154.863L226.679 151.681C226.484 151.485 226.167 151.485 225.972 151.681C225.777 151.876 225.777 152.192 225.972 152.388L228.8 155.216L225.972 158.045C225.777 158.24 225.777 158.556 225.972 158.752C226.167 158.947 226.484 158.947 226.679 158.752L229.861 155.57ZM229.508 154.716L216.241 154.716L216.241 155.716L229.508 155.716L229.508 154.716Z" fill="black" fill-opacity="0.6"/>
<path d="M186.702 203.328C186.897 203.524 187.214 203.524 187.409 203.328L190.591 200.146C190.786 199.951 190.786 199.635 190.591 199.439C190.396 199.244 190.079 199.244 189.884 199.439L187.055 202.268L184.227 199.439C184.032 199.244 183.715 199.244 183.52 199.439C183.325 199.635 183.325 199.951 183.52 200.146L186.702 203.328ZM187.555 202.975L187.555 189.709L186.555 189.709L186.555 202.975L187.555 202.975Z" fill="black" fill-opacity="0.6"/>
<path d="M187.409 99.1439C187.214 98.9487 186.897 98.9487 186.702 99.1439L183.52 102.326C183.325 102.521 183.325 102.838 183.52 103.033C183.715 103.228 184.032 103.228 184.227 103.033L187.055 100.205L189.884 103.033C190.079 103.228 190.396 103.228 190.591 103.033C190.786 102.838 190.786 102.521 190.591 102.326L187.409 99.1439ZM186.555 99.4975L186.555 112.764L187.555 112.764L187.555 99.4975L186.555 99.4975Z" fill="black" fill-opacity="0.6"/>
<rect x="127" width="6" height="276" fill="black"/>
<ellipse cx="186.804" cy="176.175" rx="20.6358" ry="4.23675" fill="#58535C"/>
<path d="M166.168 174.988L166.168 136.688" stroke="#1D1326" stroke-width="0.8" stroke-linecap="round"/>
<path d="M207.439 174.988V136.688" stroke="#1D1326" stroke-width="0.8" stroke-linecap="round"/>
<path d="M166.503 135.35C169.188 134.108 176.637 131.554 184.958 131.283C193.28 131.012 203.413 133.882 207.439 135.35" stroke="#1D1326" stroke-width="0.8" stroke-linecap="round"/>
<path d="M180.932 131.265V126.181" stroke="#1D1326" stroke-width="0.8" stroke-linecap="round"/>
<path d="M192.676 131.265V126.181" stroke="#1D1326" stroke-width="0.8" stroke-linecap="round"/>
<path d="M180.932 125.503C181.702 125.297 183.839 124.873 186.226 124.828C188.613 124.783 191.52 125.259 192.676 125.503" stroke="#1D1326" stroke-width="0.8" stroke-linecap="round"/>
<rect x="193.688" y="241.447" width="20.1325" height="20.3364" rx="2" fill="#D7D7D7"/>
</svg>
